<svg width="680" height="195" viewBox="0 0 680 195" fill="none" xmlns="http://www.w3.org/2000/svg">
<path d="M69.0637 155.43V182.864C69.0637 183.379 69.1952 183.892 69.4632 184.332C75.9046 194.909 87.523 194.232 93.0507 194.232C105.041 194.232 109.903 188.781 112.982 184.412C113.33 183.918 113.51 183.327 113.51 182.722V155.43L179.827 55.9546C168.644 67.1377 141.589 78.1073 93.0507 79.2361C44.5123 80.3649 12.3508 66.2642 2.04126 55.9546L69.0637 155.43Z" fill="#106A46"/>
<ellipse cx="90.9341" cy="31.6105" rx="89.9341" ry="31.6105" fill="#4AB882"/>
<path d="M213.912 52.0145L233.943 50.2637V156.141H213.912V52.0145Z" fill="#106B46"/>
<path d="M651.487 156.1H631.456V84.147L650.771 82.2726L651.2 96.5803C654.777 87.7095 662.074 80.9849 672.948 80.9849C674.379 80.9849 676.239 81.1279 677.384 81.4141V100.586C675.953 100.443 673.663 100.3 671.803 100.3C658.497 100.3 651.487 107.454 651.487 120.474V156.1Z" fill="#106B46"/>
<path d="M276.338 157.963C252.587 157.963 238.279 142.796 238.279 120.047V118.187C238.279 95.724 253.016 80.4148 276.338 80.4148C301.519 80.4148 313.967 98.1564 312.679 123.91H258.739C259.741 136.501 265.607 142.653 276.338 142.653C285.352 142.653 290.502 138.361 292.362 132.638H312.25C308.673 148.233 295.653 157.963 276.338 157.963ZM259.026 110.747H292.219C291.361 101.447 286.21 95.724 276.195 95.724C266.322 95.724 260.742 100.589 259.026 110.747Z" fill="#106B46"/>
<path d="M342.447 157.963C327.567 157.963 317.552 148.519 317.552 135.499C317.552 122.909 325.564 115.469 339.013 113.609L366.198 110.809V105.453C366.198 99.301 362.192 95.581 353.464 95.581C345.308 95.581 340.158 98.7287 339.442 105.024H320.556C321.701 89.2856 334.721 80.4148 353.893 80.4148C373.781 80.4148 385.513 90.2871 385.513 105.739V156.103H367.056L366.341 144.799C361.905 152.812 353.321 157.963 342.447 157.963ZM348.456 142.939C358.185 142.939 366.198 137.216 366.198 129.061V123.195L346.167 125.913C340.015 126.772 336.867 129.347 336.867 134.498C336.867 139.792 341.159 142.939 348.456 142.939Z" fill="#106B46"/>
<path d="M423.41 157.963C403.522 157.963 391.218 142.081 391.218 120.047V118.187C391.218 96.4394 403.093 80.4148 422.838 80.4148C433.712 80.4148 441.438 85.5656 445.73 92.1471V51.9844L465.904 50.2256V156.103H447.304L446.732 144.513C443.298 151.095 435.428 157.963 423.41 157.963ZM428.99 142.51C440.436 142.51 446.445 134.498 446.445 120.047V118.187C446.445 103.736 440.436 95.724 428.99 95.724C417.687 95.724 411.535 103.736 411.535 118.187V120.047C411.535 134.498 417.687 142.51 428.99 142.51Z" fill="#106B46"/>
<path d="M503.608 157.963C483.72 157.963 471.416 142.081 471.416 120.047V118.187C471.416 96.4394 483.291 80.4148 503.036 80.4148C513.909 80.4148 521.636 85.5656 525.928 92.1471V51.9827L546.102 50.2256V156.103H527.502L526.929 144.513C523.496 151.095 515.626 157.963 503.608 157.963ZM509.188 142.51C520.634 142.51 526.643 134.498 526.643 120.047V118.187C526.643 103.736 520.634 95.724 509.188 95.724C497.885 95.724 491.732 103.736 491.732 118.187V120.047C491.732 134.498 497.885 142.51 509.188 142.51Z" fill="#106B46"/>
<path d="M588.672 157.963C564.921 157.963 550.613 142.796 550.613 120.047V118.187C550.613 95.724 565.35 80.4148 588.672 80.4148C613.853 80.4148 626.301 98.1564 625.013 123.91H571.073C572.075 136.501 577.941 142.653 588.672 142.653C597.686 142.653 602.836 138.361 604.696 132.638H624.584C621.007 148.233 607.987 157.963 588.672 157.963ZM571.359 110.747H604.553C603.695 101.447 598.544 95.724 588.529 95.724C578.656 95.724 573.076 100.589 571.359 110.747Z" fill="#106B46"/>
</svg>
